<svg xmlns="http://www.w3.org/2000/svg" width="894.0000000000001" height="1490">
 <!-- Created with Image Occlusion Enhanced -->
 <g>
  <title>Labels</title>
 </g>
 <g>
  <title>Masks</title>
  <rect id="07a313ae0dea4f4d8eb02d45825a3d26-ao-1" height="36.84211" width="176.31579" y="12.63153" x="124.63154" stroke="#2D2D2D" fill="#0203ff"/>
  <rect id="07a313ae0dea4f4d8eb02d45825a3d26-ao-2" height="50" width="221.05263" y="9.99995" x="598.31575" stroke="#2D2D2D" fill="#0203ff"/>
  <rect id="07a313ae0dea4f4d8eb02d45825a3d26-ao-3" height="39.47368" width="231.57895" y="78.42101" x="24.63154" stroke="#2D2D2D" fill="#0203ff"/>
  <rect id="07a313ae0dea4f4d8eb02d45825a3d26-ao-4" height="47.36842" width="194.73684" y="186.31574" x="153.57891" stroke="#2D2D2D" fill="#0203ff"/>
  <rect id="07a313ae0dea4f4d8eb02d45825a3d26-ao-5" height="47.36842" width="228.94737" y="265.26311" x="143.05259" stroke="#2D2D2D" fill="#0203ff"/>
  <rect id="07a313ae0dea4f4d8eb02d45825a3d26-ao-6" height="39.47368" width="157.89474" y="333.68416" x="193.05259" stroke="#2D2D2D" fill="#0203ff"/>
  <rect id="07a313ae0dea4f4d8eb02d45825a3d26-ao-7" height="68.42105" width="228.94737" y="220.52627" x="587.78943" stroke="#2D2D2D" fill="#0203ff"/>
  <rect id="07a313ae0dea4f4d8eb02d45825a3d26-ao-8" height="86.8421" width="189.47368" y="396.84206" x="571.99996" stroke="#2D2D2D" fill="#0203ff"/>
  <rect id="07a313ae0dea4f4d8eb02d45825a3d26-ao-9" height="34.21053" width="168.42105" y="652.10522" x="727.26312" stroke="#2D2D2D" fill="#0203ff"/>
  <rect id="07a313ae0dea4f4d8eb02d45825a3d26-ao-10" height="31.57895" width="168.42105" y="623.15785" x="537.78943" stroke="#2D2D2D" fill="#0203ff"/>
  <rect id="07a313ae0dea4f4d8eb02d45825a3d26-ao-11" height="34.21053" width="171.05263" y="670.52627" x="540.42101" stroke="#2D2D2D" fill="#0203ff"/>
  <rect id="07a313ae0dea4f4d8eb02d45825a3d26-ao-12" height="34.21053" width="344.73684" y="928.421" x="516.7368" stroke="#2D2D2D" fill="#0203ff"/>
  <rect id="07a313ae0dea4f4d8eb02d45825a3d26-ao-13" height="42.10526" width="328.94737" y="983.68416" x="500.94733" stroke="#2D2D2D" fill="#0203ff"/>
  <rect id="07a313ae0dea4f4d8eb02d45825a3d26-ao-14" height="55.26316" width="213.15789" y="1073.15785" x="498.31575" stroke="#2D2D2D" fill="#0203ff"/>
  <rect id="07a313ae0dea4f4d8eb02d45825a3d26-ao-15" height="63.15789" width="184.21053" y="1183.68416" x="524.63154" stroke="#2D2D2D" fill="#ff0200" class="qshape"/>
  <rect id="07a313ae0dea4f4d8eb02d45825a3d26-ao-16" height="42.10526" width="239.47368" y="1359.99995" x="469.36838" stroke="#2D2D2D" fill="#0203ff"/>
  <rect id="07a313ae0dea4f4d8eb02d45825a3d26-ao-17" height="39.47368" width="247.36842" y="1407.36837" x="393.05259" stroke="#2D2D2D" fill="#0203ff"/>
  <rect id="07a313ae0dea4f4d8eb02d45825a3d26-ao-18" height="31.57895" width="231.57895" y="1407.36837" x="56.21049" stroke="#2D2D2D" fill="#0203ff"/>
  <rect id="07a313ae0dea4f4d8eb02d45825a3d26-ao-19" height="47.36842" width="228.94737" y="1341.5789" x="14.10522" stroke="#2D2D2D" fill="#0203ff"/>
  <rect id="07a313ae0dea4f4d8eb02d45825a3d26-ao-20" height="68.42105" width="147.36842" y="1136.31574" x="82.52628" stroke="#2D2D2D" fill="#0203ff"/>
 </g>
</svg>