<svg xmlns="http://www.w3.org/2000/svg" width="1782" height="1480">
 <!-- Created with Image Occlusion Enhanced -->
 <g>
  <title>Labels</title>
 </g>
 <g>
  <title>Masks</title>
  
  <rect id="1bec3c6b7a46463c90f596f202b81f37-ao-2" height="42.10526" width="434.21054" y="88.42093" x="483.78956" stroke="#2D2D2D" fill="#0203ff"/>
  <rect id="1bec3c6b7a46463c90f596f202b81f37-ao-3" height="36.84211" width="373.68423" y="19.99988" x="952.21063" stroke="#2D2D2D" fill="#0203ff"/>
  <rect id="1bec3c6b7a46463c90f596f202b81f37-ao-4" height="63.1579" width="200.00001" y="69.99988" x="989.05274" stroke="#2D2D2D" fill="#0203ff"/>
  <rect id="1bec3c6b7a46463c90f596f202b81f37-ao-5" height="39.47369" width="468.42107" y="96.31567" x="1196.94749" stroke="#2D2D2D" fill="#0203ff"/>
  <rect id="1bec3c6b7a46463c90f596f202b81f37-ao-6" height="28.94737" width="302.63159" y="175.26304" x="1191.68433" stroke="#2D2D2D" fill="#0203ff"/>
  <rect id="1bec3c6b7a46463c90f596f202b81f37-ao-7" height="65.78948" width="197.36843" y="227.89462" x="1165.36854" stroke="#2D2D2D" fill="#0203ff"/>
  <rect id="1bec3c6b7a46463c90f596f202b81f37-ao-8" height="78.94737" width="278.94738" y="230.5262" x="1423.26329" stroke="#2D2D2D" fill="#0203ff"/>
  <rect id="1bec3c6b7a46463c90f596f202b81f37-ao-9" height="86.84211" width="297.36843" y="419.99989" x="1404.84223" stroke="#2D2D2D" fill="#0203ff"/>
  <rect id="1bec3c6b7a46463c90f596f202b81f37-ao-10" height="52.63158" width="347.36843" y="517.36832" x="1278.52644" stroke="#2D2D2D" fill="#0203ff"/>
  <rect id="1bec3c6b7a46463c90f596f202b81f37-ao-11" height="73.68421" width="284.21054" y="585.78937" x="1418.00013" stroke="#2D2D2D" fill="#0203ff"/>
  <rect id="1bec3c6b7a46463c90f596f202b81f37-ao-12" height="76.31579" width="315.78949" y="704.21043" x="1410.10539" stroke="#2D2D2D" fill="#0203ff"/>
  <rect id="1bec3c6b7a46463c90f596f202b81f37-ao-13" height="39.47369" width="368.42107" y="791.05254" x="1410.10539" stroke="#2D2D2D" fill="#0203ff"/>
  <rect id="1bec3c6b7a46463c90f596f202b81f37-ao-14" height="57.89474" width="234.21054" y="893.68412" x="1391.68434" stroke="#2D2D2D" fill="#0203ff"/>
  <rect id="1bec3c6b7a46463c90f596f202b81f37-ao-15" height="68.42106" width="273.68422" y="1006.84202" x="1394.31592" stroke="#2D2D2D" fill="#0203ff"/>
  <rect id="1bec3c6b7a46463c90f596f202b81f37-ao-16" height="55.26316" width="247.36843" y="1112.10518" x="1349.57907" stroke="#2D2D2D" fill="#0203ff"/>
  <rect id="1bec3c6b7a46463c90f596f202b81f37-ao-17" height="57.89474" width="257.89475" y="1180.52624" x="1278.52644" stroke="#2D2D2D" fill="#0203ff"/>
  <rect id="1bec3c6b7a46463c90f596f202b81f37-ao-18" height="78.94737" width="394.73686" y="1267.36835" x="1036.42116" stroke="#2D2D2D" fill="#0203ff"/>
  <rect id="1bec3c6b7a46463c90f596f202b81f37-ao-19" height="47.36842" width="244.73685" y="1356.84203" x="957.47379" stroke="#2D2D2D" fill="#0203ff"/>
  <rect id="1bec3c6b7a46463c90f596f202b81f37-ao-20" height="36.84211" width="381.57896" y="1412.10519" x="831.158" stroke="#2D2D2D" fill="#0203ff"/>
  <rect id="1bec3c6b7a46463c90f596f202b81f37-ao-21" height="78.94737" width="310.52633" y="1383.15782" x="502.21062" stroke="#2D2D2D" fill="#0203ff"/>
  <rect id="1bec3c6b7a46463c90f596f202b81f37-ao-22" height="92.10527" width="205.26317" y="1288.42098" x="207.47376" stroke="#2D2D2D" fill="#0203ff"/>
  <rect id="1bec3c6b7a46463c90f596f202b81f37-ao-23" height="84.21053" width="171.05264" y="983.15781" x="307.47377" stroke="#2D2D2D" fill="#0203ff"/>
  <rect id="1bec3c6b7a46463c90f596f202b81f37-ao-24" height="57.89474" width="244.73685" y="838.42096" x="175.89481" stroke="#2D2D2D" fill="#0203ff"/>
  <rect id="1bec3c6b7a46463c90f596f202b81f37-ao-25" height="31.57895" width="426.31581" y="796.3157" x="73.26323" stroke="#2D2D2D" fill="#0203ff"/>
  <rect id="1bec3c6b7a46463c90f596f202b81f37-ao-26" height="39.47369" width="260.52633" y="733.1578" x="196.94745" stroke="#2D2D2D" fill="#0203ff"/>
  <rect id="1bec3c6b7a46463c90f596f202b81f37-ao-27" height="36.84211" width="407.89475" y="680.52622" x="57.47376" stroke="#2D2D2D" fill="#0203ff"/>
  <rect id="1bec3c6b7a46463c90f596f202b81f37-ao-28" height="50" width="221.05264" y="598.94727" x="239.05271" stroke="#2D2D2D" fill="#0203ff"/>
  <rect id="1bec3c6b7a46463c90f596f202b81f37-ao-29" height="86.84211" width="292.10527" y="451.57884" x="173.26324" stroke="#2D2D2D" fill="#0203ff"/>
  <rect id="1bec3c6b7a46463c90f596f202b81f37-ao-30" height="47.36842" width="307.89475" y="325.26305" x="146.94744" stroke="#2D2D2D" fill="#0203ff"/>
  <rect id="1bec3c6b7a46463c90f596f202b81f37-ao-31" height="84.21053" width="221.05264" y="180.5262" x="420.63167" stroke="#2D2D2D" fill="#0203ff"/>
 </g>
</svg>