<svg xmlns="http://www.w3.org/2000/svg" width="2416" height="1130">
 <!-- Created with Image Occlusion Enhanced -->
 <g>
  <title>Labels</title>
 </g>
 <g>
  <title>Masks</title>
  <rect id="1f8e3a44ebb247ee870b7f8dd4f3029f-ao-1" height="45.45454" width="197.72727" y="640.4545" x="218.0908" stroke="#2D2D2D" fill="#0203ff"/>
  <rect id="1f8e3a44ebb247ee870b7f8dd4f3029f-ao-2" height="38.63636" width="190.90909" y="704.09086" x="211.27262" stroke="#2D2D2D" fill="#0203ff"/>
  <rect id="1f8e3a44ebb247ee870b7f8dd4f3029f-ao-3" height="47.72727" width="259.0909" y="756.36359" x="143.0908" stroke="#2D2D2D" fill="#0203ff"/>
  <rect id="1f8e3a44ebb247ee870b7f8dd4f3029f-ao-4" height="63.63636" width="218.18181" y="854.09086" x="193.0908" stroke="#2D2D2D" fill="#0203ff"/>
  <rect id="1f8e3a44ebb247ee870b7f8dd4f3029f-ao-5" height="54.54545" width="288.63636" y="1060.90904" x="818.09079" stroke="#2D2D2D" fill="#0203ff"/>
  <rect id="1f8e3a44ebb247ee870b7f8dd4f3029f-ao-6" height="88.63636" width="311.36363" y="1010.90904" x="1302.18168" stroke="#2D2D2D" fill="#0203ff"/>
  <rect id="1f8e3a44ebb247ee870b7f8dd4f3029f-ao-7" height="50" width="829.54543" y="429.09087" x="1472.63622" stroke="#2D2D2D" fill="#0203ff"/>
  <rect id="1f8e3a44ebb247ee870b7f8dd4f3029f-ao-8" height="45.45454" width="406.81817" y="367.72724" x="1372.63623" stroke="#2D2D2D" fill="#0203ff"/>
  
  <rect id="1f8e3a44ebb247ee870b7f8dd4f3029f-ao-10" height="56.81818" width="261.36363" y="258.63633" x="1268.09077" stroke="#2D2D2D" fill="#0203ff"/>
  <rect id="1f8e3a44ebb247ee870b7f8dd4f3029f-ao-11" height="40.90909" width="711.36362" y="194.99997" x="1236.27259" stroke="#2D2D2D" fill="#0203ff"/>
  <rect id="1f8e3a44ebb247ee870b7f8dd4f3029f-ao-12" height="45.45454" width="197.72727" y="356.3636" x="161.27262" stroke="#2D2D2D" fill="#0203ff"/>
  <rect id="1f8e3a44ebb247ee870b7f8dd4f3029f-ao-13" height="45.45454" width="168.18181" y="426.81814" x="172.63626" stroke="#2D2D2D" fill="#0203ff"/>
  <rect id="1f8e3a44ebb247ee870b7f8dd4f3029f-ao-14" height="68.18182" width="263.63636" y="488.18178" x="163.54535" stroke="#2D2D2D" fill="#0203ff"/>
  <rect id="1f8e3a44ebb247ee870b7f8dd4f3029f-ao-15" height="45.45454" width="272.72727" y="567.72723" x="163.54535" stroke="#2D2D2D" fill="#0203ff"/>
  <rect id="1f8e3a44ebb247ee870b7f8dd4f3029f-ao-16" height="52.27273" width="100" y="460.90905" x="27.18171" stroke="#2D2D2D" fill="#0203ff"/>
  <rect id="1f8e3a44ebb247ee870b7f8dd4f3029f-ao-17" height="50" width="218.18181" y="10.90906" x="895.36351" stroke="#2D2D2D" fill="#0203ff"/>
 </g>
</svg>