<svg xmlns="http://www.w3.org/2000/svg" width="2302" height="1226">
 <!-- Created with Image Occlusion Enhanced -->
 <g>
  <title>Labels</title>
 </g>
 <g>
  <title>Masks</title>
  <rect id="2eaf37535c5d4e75a0f5bf355572385b-ao-1" height="60.86956" width="143.47826" y="19.65213" x="467.5651" stroke="#2D2D2D" fill="#0203ff"/>
  <rect id="2eaf37535c5d4e75a0f5bf355572385b-ao-2" height="41.30435" width="336.95651" y="78.34778" x="139.30424" stroke="#2D2D2D" fill="#0203ff"/>
  <rect id="2eaf37535c5d4e75a0f5bf355572385b-ao-3" height="52.17391" width="430.43477" y="165.30429" x="21.91294" stroke="#2D2D2D" fill="#0203ff"/>
  <rect id="2eaf37535c5d4e75a0f5bf355572385b-ao-4" height="54.34782" width="371.73912" y="239.21733" x="11.04338" stroke="#2D2D2D" fill="#0203ff"/>
  <rect id="2eaf37535c5d4e75a0f5bf355572385b-ao-5" height="54.34782" width="267.39129" y="323.99994" x="41.47816" stroke="#2D2D2D" fill="#0203ff"/>
  <rect id="2eaf37535c5d4e75a0f5bf355572385b-ao-6" height="67.3913" width="206.52173" y="404.43472" x="28.43468" stroke="#2D2D2D" fill="#0203ff"/>
  
  <rect id="2eaf37535c5d4e75a0f5bf355572385b-ao-8" height="54.34782" width="671.7391" y="347.91298" x="1621.91288" stroke="#2D2D2D" fill="#0203ff"/>
  <rect id="2eaf37535c5d4e75a0f5bf355572385b-ao-9" height="58.69565" width="236.95651" y="415.30428" x="1619.73897" stroke="#2D2D2D" fill="#0203ff"/>
  <rect id="2eaf37535c5d4e75a0f5bf355572385b-ao-10" height="54.34782" width="426.08694" y="215.30429" x="1332.78246" stroke="#2D2D2D" fill="#0203ff"/>
  <rect id="2eaf37535c5d4e75a0f5bf355572385b-ao-11" height="63.04348" width="415.21738" y="306.60864" x="797.99987" stroke="#2D2D2D" fill="#0203ff"/>
  <rect id="2eaf37535c5d4e75a0f5bf355572385b-ao-12" height="54.34782" width="347.82607" y="193.56516" x="693.65205" stroke="#2D2D2D" fill="#0203ff"/>
  <rect id="2eaf37535c5d4e75a0f5bf355572385b-ao-13" height="173.91304" width="186.95651" y="710.95645" x="82.78251" stroke="#2D2D2D" fill="#0203ff"/>
  <rect id="2eaf37535c5d4e75a0f5bf355572385b-ao-14" height="56.52174" width="252.1739" y="576.17384" x="1611.04332" stroke="#2D2D2D" fill="#0203ff"/>
  <rect id="2eaf37535c5d4e75a0f5bf355572385b-ao-15" height="47.82609" width="315.21738" y="637.04341" x="1624.08679" stroke="#2D2D2D" fill="#0203ff"/>
  <rect id="2eaf37535c5d4e75a0f5bf355572385b-ao-16" height="58.69565" width="365.21738" y="728.34775" x="1619.73897" stroke="#2D2D2D" fill="#0203ff"/>
  <rect id="2eaf37535c5d4e75a0f5bf355572385b-ao-17" height="60.86956" width="393.47825" y="793.56514" x="1615.39114" stroke="#2D2D2D" fill="#0203ff"/>
  <rect id="2eaf37535c5d4e75a0f5bf355572385b-ao-18" height="34.78261" width="223.91303" y="876.17383" x="1617.56506" stroke="#2D2D2D" fill="#0203ff"/>
  <rect id="2eaf37535c5d4e75a0f5bf355572385b-ao-19" height="63.04348" width="286.95651" y="928.34774" x="1624.08679" stroke="#2D2D2D" fill="#0203ff"/>
  <rect id="2eaf37535c5d4e75a0f5bf355572385b-ao-20" height="54.34782" width="404.34781" y="1000.08687" x="1624.08679" stroke="#2D2D2D" fill="#0203ff"/>
  <rect id="2eaf37535c5d4e75a0f5bf355572385b-ao-21" height="65.21739" width="230.43477" y="1063.13035" x="1626.26071" stroke="#2D2D2D" fill="#0203ff"/>
  <rect id="2eaf37535c5d4e75a0f5bf355572385b-ao-22" height="65.21739" width="395.65216" y="1137.04339" x="1615.39114" stroke="#2D2D2D" fill="#0203ff"/>
 </g>
</svg>