<svg xmlns="http://www.w3.org/2000/svg" width="660" height="1558">
 <!-- Created with Image Occlusion Enhanced -->
 <g>
  <title>Labels</title>
 </g>
 <g>
  <title>Masks</title>
  <rect id="38cac1f908bc4bd0bf2373bde5cf9ef7-ao-1" height="86.11111" width="130.55555" y="39.22221" x="36.9444" stroke="#2D2D2D" fill="#0203ff"/>
  <rect id="38cac1f908bc4bd0bf2373bde5cf9ef7-ao-2" height="38.88889" width="355.55555" y="33.66665" x="295.27774" stroke="#2D2D2D" fill="#0203ff"/>
  <rect id="38cac1f908bc4bd0bf2373bde5cf9ef7-ao-3" height="50" width="208.33333" y="89.22221" x="461.9444" stroke="#2D2D2D" fill="#0203ff"/>
  <rect id="38cac1f908bc4bd0bf2373bde5cf9ef7-ao-4" height="66.66667" width="130.55555" y="153.1111" x="509.16662" stroke="#2D2D2D" fill="#0203ff"/>
  
  <rect id="38cac1f908bc4bd0bf2373bde5cf9ef7-ao-6" height="77.77778" width="183.33333" y="297.55554" x="23.05552" stroke="#2D2D2D" fill="#0203ff"/>
  <rect id="38cac1f908bc4bd0bf2373bde5cf9ef7-ao-7" height="63.88889" width="211.11111" y="491.99998" x="11.9444" stroke="#2D2D2D" fill="#0203ff"/>
  <rect id="38cac1f908bc4bd0bf2373bde5cf9ef7-ao-8" height="47.22222" width="188.88889" y="661.44443" x="23.05552" stroke="#2D2D2D" fill="#0203ff"/>
  <rect id="38cac1f908bc4bd0bf2373bde5cf9ef7-ao-9" height="72.22222" width="155.55555" y="772.55554" x="64.72218" stroke="#2D2D2D" fill="#0203ff"/>
  <rect id="38cac1f908bc4bd0bf2373bde5cf9ef7-ao-10" height="50" width="216.66666" y="591.99998" x="414.72218" stroke="#2D2D2D" fill="#0203ff"/>
  <rect id="38cac1f908bc4bd0bf2373bde5cf9ef7-ao-11" height="75" width="191.66666" y="719.77776" x="409.16662" stroke="#2D2D2D" fill="#0203ff"/>
  <rect id="38cac1f908bc4bd0bf2373bde5cf9ef7-ao-12" height="75" width="225" y="989.2222" x="392.49996" stroke="#2D2D2D" fill="#0203ff"/>
  <rect id="38cac1f908bc4bd0bf2373bde5cf9ef7-ao-13" height="63.88889" width="136.11111" y="1391.99997" x="450.83329" stroke="#2D2D2D" fill="#0203ff"/>
  <rect id="38cac1f908bc4bd0bf2373bde5cf9ef7-ao-14" height="66.66667" width="127.77778" y="1339.2222" x="45.27774" stroke="#2D2D2D" fill="#0203ff"/>
  <rect id="38cac1f908bc4bd0bf2373bde5cf9ef7-ao-15" height="36.11111" width="272.22222" y="1419.77775" x="48.05552" stroke="#2D2D2D" fill="#0203ff"/>
  <rect id="38cac1f908bc4bd0bf2373bde5cf9ef7-ao-16" height="61.11111" width="286.11111" y="1469.77775" x="56.38885" stroke="#2D2D2D" fill="#0203ff"/>
 </g>
</svg>