<svg xmlns="http://www.w3.org/2000/svg" width="1806" height="1116">
 <!-- Created with Image Occlusion Enhanced -->
 <g>
  <title>Labels</title>
 </g>
 <g>
  <title>Masks</title>
  <rect id="461b388e815645deb037375ce4e74714-ao-1" height="34" width="298" y="22" x="740" stroke="#2D2D2D" fill="#0203ff"/>
  <rect id="461b388e815645deb037375ce4e74714-ao-2" height="46" width="204" y="130" x="530" stroke="#2D2D2D" fill="#0203ff"/>
  <rect id="461b388e815645deb037375ce4e74714-ao-3" height="38" width="168" y="152" x="290" stroke="#2D2D2D" fill="#0203ff"/>
  <rect id="461b388e815645deb037375ce4e74714-ao-4" height="32" width="264" y="186" x="16" stroke="#2D2D2D" fill="#0203ff"/>
  <rect id="461b388e815645deb037375ce4e74714-ao-5" height="42" width="168" y="284" x="96" stroke="#2D2D2D" fill="#0203ff"/>
  <rect id="461b388e815645deb037375ce4e74714-ao-6" height="68" width="178" y="358" x="84" stroke="#2D2D2D" fill="#0203ff"/>
  <rect id="461b388e815645deb037375ce4e74714-ao-7" height="40" width="176" y="844" x="214" stroke="#2D2D2D" fill="#0203ff"/>
  <rect id="461b388e815645deb037375ce4e74714-ao-8" height="32" width="234" y="906" x="294" stroke="#2D2D2D" fill="#0203ff"/>
  <rect id="461b388e815645deb037375ce4e74714-ao-9" height="32" width="82" y="982" x="438" stroke="#2D2D2D" fill="#0203ff"/>
  <rect id="461b388e815645deb037375ce4e74714-ao-10" height="28" width="208" y="1058" x="432" stroke="#2D2D2D" fill="#0203ff"/>
  <rect id="461b388e815645deb037375ce4e74714-ao-11" height="34" width="370" y="964" x="1052" stroke="#2D2D2D" fill="#0203ff"/>
  <rect id="461b388e815645deb037375ce4e74714-ao-12" height="68" width="284" y="758" x="1502" stroke="#2D2D2D" fill="#0203ff"/>
  <rect id="461b388e815645deb037375ce4e74714-ao-13" height="48" width="214" y="668" x="1518" stroke="#2D2D2D" fill="#0203ff"/>
  <rect id="461b388e815645deb037375ce4e74714-ao-14" height="34" width="130" y="438" x="1474" stroke="#2D2D2D" fill="#0203ff"/>
  <rect id="461b388e815645deb037375ce4e74714-ao-15" height="74" width="188" y="292" x="1442" stroke="#2D2D2D" fill="#0203ff"/>
  <rect id="461b388e815645deb037375ce4e74714-ao-16" height="44" width="158" y="180" x="1274" stroke="#2D2D2D" fill="#0203ff"/>
  
 </g>
</svg>