<svg xmlns="http://www.w3.org/2000/svg" width="1944" height="1210">
 <!-- Created with Image Occlusion Enhanced -->
 <g>
  <title>Labels</title>
 </g>
 <g>
  <title>Masks</title>
  <rect id="46251389ca674a9083e02e2b13a40df9-ao-1" height="67.39131" width="506.52176" y="16.08701" x="651.65219" stroke="#2D2D2D" fill="#0203ff"/>
  <rect id="46251389ca674a9083e02e2b13a40df9-ao-2" height="76.08696" width="182.6087" y="148.69571" x="564.69567" stroke="#2D2D2D" fill="#0203ff"/>
  <rect id="46251389ca674a9083e02e2b13a40df9-ao-3" height="50" width="582.60872" y="187.82615" x="775.56524" stroke="#2D2D2D" fill="#0203ff"/>
  <rect id="46251389ca674a9083e02e2b13a40df9-ao-4" height="41.30435" width="200.00001" y="268.26093" x="1006.00003" stroke="#2D2D2D" fill="#0203ff"/>
  <rect id="46251389ca674a9083e02e2b13a40df9-ao-5" height="54.34783" width="195.65218" y="268.26093" x="1275.56526" stroke="#2D2D2D" fill="#0203ff"/>
  <rect id="46251389ca674a9083e02e2b13a40df9-ao-6" height="78.26087" width="247.8261" y="226.95658" x="1545.13049" stroke="#2D2D2D" fill="#0203ff"/>
  <rect id="46251389ca674a9083e02e2b13a40df9-ao-7" height="63.04348" width="234.78262" y="516.08703" x="1603.82615" stroke="#2D2D2D" fill="#0203ff"/>
  <rect id="46251389ca674a9083e02e2b13a40df9-ao-8" height="67.39131" width="332.60871" y="692.174" x="1419.04353" stroke="#2D2D2D" fill="#0203ff"/>
  <rect id="46251389ca674a9083e02e2b13a40df9-ao-9" height="54.34783" width="221.73914" y="805.21748" x="1503.82614" stroke="#2D2D2D" fill="#0203ff"/>
  
  <rect id="46251389ca674a9083e02e2b13a40df9-ao-11" height="43.47826" width="700.00003" y="996.52184" x="1214.69569" stroke="#2D2D2D" fill="#0203ff"/>
  <rect id="46251389ca674a9083e02e2b13a40df9-ao-12" height="43.47826" width="232.60871" y="1050.86966" x="1001.65221" stroke="#2D2D2D" fill="#0203ff"/>
  <rect id="46251389ca674a9083e02e2b13a40df9-ao-13" height="45.65218" width="371.73915" y="1163.91315" x="375.56522" stroke="#2D2D2D" fill="#0203ff"/>
  <rect id="46251389ca674a9083e02e2b13a40df9-ao-14" height="165.2174" width="267.39132" y="842.174" x="136.43478" stroke="#2D2D2D" fill="#0203ff"/>
  <rect id="46251389ca674a9083e02e2b13a40df9-ao-15" height="45.65218" width="326.08697" y="761.73922" x="64.69564" stroke="#2D2D2D" fill="#0203ff"/>
  <rect id="46251389ca674a9083e02e2b13a40df9-ao-16" height="32.6087" width="256.52175" y="716.08704" x="71.21738" stroke="#2D2D2D" fill="#0203ff"/>
  <rect id="46251389ca674a9083e02e2b13a40df9-ao-17" height="47.82609" width="315.21741" y="561.73921" x="51.65217" stroke="#2D2D2D" fill="#0203ff"/>
  <rect id="46251389ca674a9083e02e2b13a40df9-ao-18" height="56.52174" width="297.8261" y="383.47833" x="142.95652" stroke="#2D2D2D" fill="#0203ff"/>
  <rect id="46251389ca674a9083e02e2b13a40df9-ao-19" height="50" width="258.69566" y="246.5218" x="382.08696" stroke="#2D2D2D" fill="#0203ff"/>
 </g>
</svg>