<svg xmlns="http://www.w3.org/2000/svg" width="1556" height="1448">
 <!-- Created with Image Occlusion Enhanced -->
 <g>
  <title>Labels</title>
 </g>
 <g>
  <title>Masks</title>
  <rect id="5c6a4b09f32c43feb0a6b9a091c58069-ao-1" height="38.46154" width="274.35899" y="18.66674" x="813.23067" stroke="#2D2D2D" fill="#0203ff"/>
  <rect id="5c6a4b09f32c43feb0a6b9a091c58069-ao-2" height="43.58975" width="200.00001" y="72.5129" x="808.10246" stroke="#2D2D2D" fill="#0203ff"/>
  <rect id="5c6a4b09f32c43feb0a6b9a091c58069-ao-3" height="48.71795" width="161.53847" y="169.9488" x="861.94862" stroke="#2D2D2D" fill="#0203ff"/>
  <rect id="5c6a4b09f32c43feb0a6b9a091c58069-ao-4" height="30.76923" width="192.3077" y="267.3847" x="895.28195" stroke="#2D2D2D" fill="#0203ff"/>
  <rect id="5c6a4b09f32c43feb0a6b9a091c58069-ao-5" height="41.02564" width="235.89745" y="310.97445" x="1005.53837" stroke="#2D2D2D" fill="#0203ff"/>
  <rect id="5c6a4b09f32c43feb0a6b9a091c58069-ao-6" height="41.02564" width="207.69232" y="398.15394" x="1049.12812" stroke="#2D2D2D" fill="#0203ff"/>
  <rect id="5c6a4b09f32c43feb0a6b9a091c58069-ao-7" height="30.76923" width="161.53847" y="564.82062" x="1059.38453" stroke="#2D2D2D" fill="#0203ff"/>
  <rect id="5c6a4b09f32c43feb0a6b9a091c58069-ao-8" height="41.02564" width="197.43591" y="621.23088" x="1092.71786" stroke="#2D2D2D" fill="#0203ff"/>
  <rect id="5c6a4b09f32c43feb0a6b9a091c58069-ao-9" height="38.46154" width="446.15387" y="680.20524" x="1105.53838" stroke="#2D2D2D" fill="#0203ff"/>
  <rect id="5c6a4b09f32c43feb0a6b9a091c58069-ao-10" height="69.23077" width="351.28207" y="808.41037" x="1195.28197" stroke="#2D2D2D" fill="#0203ff"/>
  <rect id="5c6a4b09f32c43feb0a6b9a091c58069-ao-11" height="38.46154" width="317.94873" y="900.71807" x="1156.82043" stroke="#2D2D2D" fill="#0203ff"/>
  <rect id="5c6a4b09f32c43feb0a6b9a091c58069-ao-12" height="43.58975" width="146.15385" y="972.51295" x="1143.99992" stroke="#2D2D2D" fill="#0203ff"/>
  <rect id="5c6a4b09f32c43feb0a6b9a091c58069-ao-13" height="48.71795" width="187.1795" y="1259.69245" x="1090.15376" stroke="#2D2D2D" fill="#0203ff"/>
  <rect id="5c6a4b09f32c43feb0a6b9a091c58069-ao-14" height="64.10257" width="264.10258" y="1326.35912" x="1005.53837" stroke="#2D2D2D" fill="#0203ff"/>
  <rect id="5c6a4b09f32c43feb0a6b9a091c58069-ao-15" height="35.89744" width="233.33335" y="1395.58989" x="646.56399" stroke="#2D2D2D" fill="#0203ff"/>
  <rect id="5c6a4b09f32c43feb0a6b9a091c58069-ao-16" height="41.02564" width="197.43591" y="1154.56424" x="256.82038" stroke="#2D2D2D" fill="#0203ff"/>
  
  <rect id="5c6a4b09f32c43feb0a6b9a091c58069-ao-18" height="46.15385" width="228.20514" y="952.00012" x="23.48704" stroke="#2D2D2D" fill="#0203ff"/>
  <rect id="5c6a4b09f32c43feb0a6b9a091c58069-ao-19" height="41.02564" width="184.61539" y="854.56422" x="31.17935" stroke="#2D2D2D" fill="#0203ff"/>
  <rect id="5c6a4b09f32c43feb0a6b9a091c58069-ao-20" height="28.20513" width="135.89744" y="816.10268" x="141.43576" stroke="#2D2D2D" fill="#0203ff"/>
  <rect id="5c6a4b09f32c43feb0a6b9a091c58069-ao-21" height="64.10257" width="130.76924" y="582.76934" x="128.61525" stroke="#2D2D2D" fill="#0203ff"/>
  <rect id="5c6a4b09f32c43feb0a6b9a091c58069-ao-22" height="41.02564" width="248.71796" y="410.97446" x="77.33319" stroke="#2D2D2D" fill="#0203ff"/>
  <rect id="5c6a4b09f32c43feb0a6b9a091c58069-ao-23" height="33.33334" width="194.8718" y="257.12829" x="200.41012" stroke="#2D2D2D" fill="#0203ff"/>
  <rect id="5c6a4b09f32c43feb0a6b9a091c58069-ao-24" height="66.66667" width="189.7436" y="87.89752" x="305.53833" stroke="#2D2D2D" fill="#0203ff"/>
  <rect id="5c6a4b09f32c43feb0a6b9a091c58069-ao-25" height="53.84616" width="207.69232" y="493.02574" x="1054.25632" stroke="#2D2D2D" fill="#0203ff"/>
  <rect id="5c6a4b09f32c43feb0a6b9a091c58069-ao-26" height="61.53846" width="223.07693" y="485.33343" x="54.25627" stroke="#2D2D2D" fill="#0203ff"/>
 </g>
</svg>