<svg xmlns="http://www.w3.org/2000/svg" width="2234" height="1459.9999999999998">
 <!-- Created with Image Occlusion Enhanced -->
 <g>
  <title>Labels</title>
 </g>
 <g>
  <title>Masks</title>
  <rect id="5fb2ac2a1b1d4b4cb90297c3afffeef4-ao-1" height="52.63158" width="436.84211" y="166.31583" x="526.52637" stroke="#2D2D2D" fill="#0203ff"/>
  <rect id="5fb2ac2a1b1d4b4cb90297c3afffeef4-ao-2" height="42.10526" width="234.21053" y="74.21056" x="850.21059" stroke="#2D2D2D" fill="#0203ff"/>
  <rect id="5fb2ac2a1b1d4b4cb90297c3afffeef4-ao-3" height="65.78948" width="363.1579" y="163.68425" x="1263.36849" stroke="#2D2D2D" fill="#0203ff"/>
  <rect id="5fb2ac2a1b1d4b4cb90297c3afffeef4-ao-4" height="89.47369" width="200" y="295.2632" x="1497.57902" stroke="#2D2D2D" fill="#ff0200" class="qshape"/>
  <rect id="5fb2ac2a1b1d4b4cb90297c3afffeef4-ao-5" height="76.31579" width="315.78948" y="468.94741" x="1555.47376" stroke="#2D2D2D" fill="#0203ff"/>
  <rect id="5fb2ac2a1b1d4b4cb90297c3afffeef4-ao-6" height="55.26316" width="350.00001" y="613.68426" x="1502.84218" stroke="#2D2D2D" fill="#0203ff"/>
  <rect id="5fb2ac2a1b1d4b4cb90297c3afffeef4-ao-7" height="60.52632" width="400.00001" y="708.4211" x="1560.73692" stroke="#2D2D2D" fill="#0203ff"/>
  <rect id="5fb2ac2a1b1d4b4cb90297c3afffeef4-ao-8" height="55.26316" width="300.00001" y="863.68426" x="1534.42113" stroke="#2D2D2D" fill="#0203ff"/>
  <rect id="5fb2ac2a1b1d4b4cb90297c3afffeef4-ao-9" height="73.68421" width="342.10527" y="955.78953" x="1523.89481" stroke="#2D2D2D" fill="#0203ff"/>
  <rect id="5fb2ac2a1b1d4b4cb90297c3afffeef4-ao-10" height="89.47369" width="360.52632" y="1074.21058" x="1587.05271" stroke="#2D2D2D" fill="#0203ff"/>
  <rect id="5fb2ac2a1b1d4b4cb90297c3afffeef4-ao-11" height="52.63158" width="250.00001" y="1400.52638" x="589.68427" stroke="#2D2D2D" fill="#0203ff"/>
  <rect id="5fb2ac2a1b1d4b4cb90297c3afffeef4-ao-12" height="76.31579" width="213.1579" y="1311.05269" x="489.68426" stroke="#2D2D2D" fill="#0203ff"/>
  <rect id="5fb2ac2a1b1d4b4cb90297c3afffeef4-ao-13" height="65.78948" width="239.47369" y="1153.15795" x="247.579" stroke="#2D2D2D" fill="#0203ff"/>
  <rect id="5fb2ac2a1b1d4b4cb90297c3afffeef4-ao-14" height="84.21053" width="160.52632" y="1018.94742" x="258.10531" stroke="#2D2D2D" fill="#0203ff"/>
  <rect id="5fb2ac2a1b1d4b4cb90297c3afffeef4-ao-15" height="92.10527" width="239.47369" y="850.52637" x="92.31583" stroke="#2D2D2D" fill="#0203ff"/>
  <rect id="5fb2ac2a1b1d4b4cb90297c3afffeef4-ao-16" height="84.21053" width="205.26316" y="750.52636" x="171.2632" stroke="#2D2D2D" fill="#0203ff"/>
  <rect id="5fb2ac2a1b1d4b4cb90297c3afffeef4-ao-17" height="60.52632" width="200" y="145.26319" x="110.73689" stroke="#2D2D2D" fill="#0203ff"/>
 </g>
</svg>