<svg xmlns="http://www.w3.org/2000/svg" width="2018.0000000000002" height="1558">
 <!-- Created with Image Occlusion Enhanced -->
 <g>
  <title>Labels</title>
 </g>
 <g>
  <title>Masks</title>
  <rect id="6333616afeab49488959fc533441d27f-ao-1" height="72.22222" width="444.44446" y="0.33329" x="612.55563" stroke="#2D2D2D" fill="#ff0200" class="qshape"/>
  <rect id="6333616afeab49488959fc533441d27f-ao-2" height="47.22222" width="438.8889" y="105.88885" x="1093.11119" stroke="#2D2D2D" fill="#0203ff"/>
  <rect id="6333616afeab49488959fc533441d27f-ao-3" height="36.11111" width="533.33335" y="175.3333" x="1165.33342" stroke="#2D2D2D" fill="#0203ff"/>
  <rect id="6333616afeab49488959fc533441d27f-ao-4" height="50" width="825.00002" y="239.22219" x="1190.33342" stroke="#2D2D2D" fill="#0203ff"/>
  <rect id="6333616afeab49488959fc533441d27f-ao-5" height="47.22222" width="630.55557" y="300.3333" x="1304.22231" stroke="#2D2D2D" fill="#0203ff"/>
  <rect id="6333616afeab49488959fc533441d27f-ao-6" height="47.22222" width="433.33334" y="375.3333" x="1376.44454" stroke="#2D2D2D" fill="#0203ff"/>
  <rect id="6333616afeab49488959fc533441d27f-ao-7" height="91.66667" width="227.77778" y="480.88886" x="1454.22232" stroke="#2D2D2D" fill="#0203ff"/>
  <rect id="6333616afeab49488959fc533441d27f-ao-8" height="58.33333" width="369.44445" y="611.44442" x="1501.44454" stroke="#2D2D2D" fill="#0203ff"/>
  <rect id="6333616afeab49488959fc533441d27f-ao-9" height="77.77778" width="247.22223" y="1016.99999" x="1515.33343" stroke="#2D2D2D" fill="#0203ff"/>
  <rect id="6333616afeab49488959fc533441d27f-ao-10" height="52.77778" width="455.55557" y="1205.88888" x="1495.88898" stroke="#2D2D2D" fill="#0203ff"/>
  <rect id="6333616afeab49488959fc533441d27f-ao-11" height="36.11111" width="266.66667" y="1492" x="1315.33342" stroke="#2D2D2D" fill="#0203ff"/>
  <rect id="6333616afeab49488959fc533441d27f-ao-12" height="86.11111" width="194.44445" y="1116.99999" x="98.66672" stroke="#2D2D2D" fill="#0203ff"/>
  <rect id="6333616afeab49488959fc533441d27f-ao-13" height="47.22222" width="297.22223" y="950.33332" x="4.22228" stroke="#2D2D2D" fill="#0203ff"/>
  <rect id="6333616afeab49488959fc533441d27f-ao-14" height="66.66667" width="277.77779" y="830.88887" x="40.33339" stroke="#2D2D2D" fill="#0203ff"/>
  <rect id="6333616afeab49488959fc533441d27f-ao-15" height="61.11111" width="236.11112" y="725.33331" x="59.77783" stroke="#2D2D2D" fill="#0203ff"/>
  <rect id="6333616afeab49488959fc533441d27f-ao-16" height="63.88889" width="280.55556" y="633.66664" x="4.22228" stroke="#2D2D2D" fill="#0203ff"/>
  <rect id="6333616afeab49488959fc533441d27f-ao-17" height="50" width="269.44445" y="533.66664" x="70.88895" stroke="#2D2D2D" fill="#0203ff"/>
  <rect id="6333616afeab49488959fc533441d27f-ao-18" height="52.77778" width="100" y="430.88886" x="190.33339" stroke="#2D2D2D" fill="#0203ff"/>
  <rect id="6333616afeab49488959fc533441d27f-ao-19" height="55.55556" width="91.66667" y="333.66663" x="187.55561" stroke="#2D2D2D" fill="#0203ff"/>
  <rect id="6333616afeab49488959fc533441d27f-ao-20" height="50" width="197.22223" y="180.88885" x="93.11117" stroke="#2D2D2D" fill="#0203ff"/>
 </g>
</svg>