<svg xmlns="http://www.w3.org/2000/svg" width="1848" height="1668">
 <!-- Created with Image Occlusion Enhanced -->
 <g>
  <title>Labels</title>
 </g>
 <g>
  <title>Masks</title>
  <rect id="732decfc0d2c4b42871dff9b7fbd7edc-ao-1" height="55.88235" width="723.52942" y="76.11766" x="137.29408" stroke="#2D2D2D" fill="#0203ff"/>
  <rect id="732decfc0d2c4b42871dff9b7fbd7edc-ao-2" height="85.29412" width="500" y="82.00002" x="878.47056" stroke="#2D2D2D" fill="#0203ff"/>
  <rect id="732decfc0d2c4b42871dff9b7fbd7edc-ao-3" height="55.88235" width="361.76471" y="179.05884" x="1346.11762" stroke="#2D2D2D" fill="#0203ff"/>
  <rect id="732decfc0d2c4b42871dff9b7fbd7edc-ao-4" height="82.35294" width="211.76471" y="387.88237" x="1451.99997" stroke="#2D2D2D" fill="#0203ff"/>
  <rect id="732decfc0d2c4b42871dff9b7fbd7edc-ao-5" height="61.76471" width="308.82353" y="470.23531" x="1463.76468" stroke="#2D2D2D" fill="#0203ff"/>
  <rect id="732decfc0d2c4b42871dff9b7fbd7edc-ao-6" height="52.94118" width="223.52941" y="546.7059" x="1443.17644" stroke="#2D2D2D" fill="#0203ff"/>
  <rect id="732decfc0d2c4b42871dff9b7fbd7edc-ao-7" height="50" width="338.2353" y="743.76473" x="1454.94115" stroke="#2D2D2D" fill="#0203ff"/>
  <rect id="732decfc0d2c4b42871dff9b7fbd7edc-ao-8" height="44.11765" width="241.17647" y="837.88237" x="1475.52938" stroke="#2D2D2D" fill="#0203ff"/>
  <rect id="732decfc0d2c4b42871dff9b7fbd7edc-ao-9" height="79.41177" width="311.76471" y="896.7059" x="1513.76468" stroke="#2D2D2D" fill="#0203ff"/>
  <rect id="732decfc0d2c4b42871dff9b7fbd7edc-ao-10" height="58.82353" width="352.94118" y="1067.29414" x="1290.23526" stroke="#2D2D2D" fill="#0203ff"/>
  <rect id="732decfc0d2c4b42871dff9b7fbd7edc-ao-11" height="61.76471" width="238.2353" y="1152.58826" x="1257.88232" stroke="#2D2D2D" fill="#0203ff"/>
  <rect id="732decfc0d2c4b42871dff9b7fbd7edc-ao-12" height="38.23529" width="373.52941" y="1608.47062" x="622.5882" stroke="#2D2D2D" fill="#0203ff"/>
  <rect id="732decfc0d2c4b42871dff9b7fbd7edc-ao-13" height="44.11765" width="302.94118" y="1511.41179" x="475.52938" stroke="#2D2D2D" fill="#0203ff"/>
  <rect id="732decfc0d2c4b42871dff9b7fbd7edc-ao-14" height="85.29412" width="208.82353" y="1358.47061" x="304.94114" stroke="#2D2D2D" fill="#0203ff"/>
  <rect id="732decfc0d2c4b42871dff9b7fbd7edc-ao-15" height="55.88235" width="129.41177" y="1273.1765" x="281.41173" stroke="#2D2D2D" fill="#0203ff"/>
  <rect id="732decfc0d2c4b42871dff9b7fbd7edc-ao-16" height="58.82353" width="282.35294" y="1123.17649" x="96.11761" stroke="#2D2D2D" fill="#0203ff"/>
  <rect id="732decfc0d2c4b42871dff9b7fbd7edc-ao-17" height="52.94118" width="252.94118" y="876.11767" x="234.3529" stroke="#2D2D2D" fill="#0203ff"/>
  <rect id="732decfc0d2c4b42871dff9b7fbd7edc-ao-18" height="100" width="270.58824" y="632.00002" x="201.99996" stroke="#2D2D2D" fill="#0203ff"/>
  <rect id="732decfc0d2c4b42871dff9b7fbd7edc-ao-19" height="91.17647" width="285.29412" y="461.41178" x="184.3529" stroke="#2D2D2D" fill="#0203ff"/>
  <rect id="732decfc0d2c4b42871dff9b7fbd7edc-ao-20" height="67.64706" width="361.76471" y="293.76472" x="172.5882" stroke="#2D2D2D" fill="#0203ff"/>
  
  <rect id="732decfc0d2c4b42871dff9b7fbd7edc-ao-22" height="50" width="291.17647" y="155.52943" x="399.05879" stroke="#2D2D2D" fill="#0203ff"/>
 </g>
</svg>