<svg xmlns="http://www.w3.org/2000/svg" width="1728" height="1340">
 <!-- Created with Image Occlusion Enhanced -->
 <g>
  <title>Labels</title>
 </g>
 <g>
  <title>Masks</title>
  <rect id="7421cba9cfaa43c79be958d0d669b480-ao-1" height="33.33333" width="116.66667" y="114.76194" x="829.14282" stroke="#2D2D2D" fill="#0203ff"/>
  <rect id="7421cba9cfaa43c79be958d0d669b480-ao-2" height="33.33333" width="230.95239" y="31.4286" x="745.80949" stroke="#2D2D2D" fill="#0203ff"/>
  <rect id="7421cba9cfaa43c79be958d0d669b480-ao-3" height="78.57143" width="109.52381" y="76.6667" x="600.57139" stroke="#2D2D2D" fill="#0203ff"/>
  <rect id="7421cba9cfaa43c79be958d0d669b480-ao-4" height="33.33333" width="328.57144" y="2.85717" x="243.42852" stroke="#2D2D2D" fill="#0203ff"/>
  <rect id="7421cba9cfaa43c79be958d0d669b480-ao-5" height="30.95238" width="338.09525" y="95.71432" x="10.09518" stroke="#2D2D2D" fill="#0203ff"/>
  <rect id="7421cba9cfaa43c79be958d0d669b480-ao-6" height="47.61905" width="116.66667" y="417.1429" x="245.80948" stroke="#2D2D2D" fill="#0203ff"/>
  <rect id="7421cba9cfaa43c79be958d0d669b480-ao-7" height="57.14286" width="197.61905" y="836.19052" x="298.19043" stroke="#2D2D2D" fill="#0203ff"/>
  <rect id="7421cba9cfaa43c79be958d0d669b480-ao-8" height="33.33333" width="219.04762" y="1052.85719" x="276.76186" stroke="#2D2D2D" fill="#0203ff"/>
  <rect id="7421cba9cfaa43c79be958d0d669b480-ao-9" height="57.14286" width="252.38096" y="1279.04768" x="357.71424" stroke="#2D2D2D" fill="#0203ff"/>
  <rect id="7421cba9cfaa43c79be958d0d669b480-ao-10" height="69.04762" width="278.57143" y="1236.19053" x="819.61901" stroke="#2D2D2D" fill="#0203ff"/>
  <rect id="7421cba9cfaa43c79be958d0d669b480-ao-11" height="33.33333" width="233.33334" y="979.04767" x="871.99997" stroke="#2D2D2D" fill="#ff0200" class="qshape"/>
  <rect id="7421cba9cfaa43c79be958d0d669b480-ao-12" height="28.57143" width="154.76191" y="162.38098" x="943.42854" stroke="#2D2D2D" fill="#0203ff"/>
  <rect id="7421cba9cfaa43c79be958d0d669b480-ao-13" height="26.19048" width="121.42857" y="155.23813" x="1186.28569" stroke="#2D2D2D" fill="#0203ff"/>
  <rect id="7421cba9cfaa43c79be958d0d669b480-ao-14" height="35.71429" width="188.09524" y="252.85718" x="1341.04759" stroke="#2D2D2D" fill="#0203ff"/>
  <rect id="7421cba9cfaa43c79be958d0d669b480-ao-15" height="111.90476" width="85.71429" y="517.1429" x="1629.14284" stroke="#2D2D2D" fill="#0203ff"/>
  <rect id="7421cba9cfaa43c79be958d0d669b480-ao-16" height="35.71429" width="266.66667" y="750.47624" x="1350.5714" stroke="#2D2D2D" fill="#0203ff"/>
 </g>
</svg>