<svg xmlns="http://www.w3.org/2000/svg" width="1916" height="1522">
 <!-- Created with Image Occlusion Enhanced -->
 <g>
  <title>Labels</title>
 </g>
 <g>
  <title>Masks</title>
  <rect id="92b166d07e094529b1058334d81e77e3-ao-1" height="132.43244" width="272.97298" y="80.70263" x="24.54059" stroke="#2D2D2D" fill="#0203ff"/>
  
  <rect id="92b166d07e094529b1058334d81e77e3-ao-3" height="51.35135" width="397.29731" y="83.40533" x="1502.919" stroke="#2D2D2D" fill="#0203ff"/>
  <rect id="92b166d07e094529b1058334d81e77e3-ao-4" height="89.18919" width="427.02704" y="150.9729" x="1497.5136" stroke="#2D2D2D" fill="#0203ff"/>
  <rect id="92b166d07e094529b1058334d81e77e3-ao-5" height="129.72973" width="397.29731" y="253.6756" x="1505.6217" stroke="#2D2D2D" fill="#0203ff"/>
  <rect id="92b166d07e094529b1058334d81e77e3-ao-6" height="105.40541" width="321.62163" y="413.13507" x="1492.10819" stroke="#2D2D2D" fill="#0203ff"/>
  <rect id="92b166d07e094529b1058334d81e77e3-ao-7" height="75.67568" width="345.94595" y="583.40534" x="1497.5136" stroke="#2D2D2D" fill="#0203ff"/>
  <rect id="92b166d07e094529b1058334d81e77e3-ao-8" height="86.48649" width="370.27028" y="691.51345" x="1494.81089" stroke="#2D2D2D" fill="#0203ff"/>
  <rect id="92b166d07e094529b1058334d81e77e3-ao-9" height="51.35135" width="248.64865" y="810.43237" x="1492.10819" stroke="#2D2D2D" fill="#0203ff"/>
  <rect id="92b166d07e094529b1058334d81e77e3-ao-10" height="89.18919" width="345.94595" y="910.43238" x="1484.00008" stroke="#2D2D2D" fill="#0203ff"/>
  <rect id="92b166d07e094529b1058334d81e77e3-ao-11" height="124.32433" width="356.75677" y="1034.7567" x="1489.40549" stroke="#2D2D2D" fill="#0203ff"/>
  <rect id="92b166d07e094529b1058334d81e77e3-ao-12" height="54.05406" width="259.45947" y="1202.32428" x="1492.10819" stroke="#2D2D2D" fill="#0203ff"/>
  <rect id="92b166d07e094529b1058334d81e77e3-ao-13" height="56.75676" width="256.75676" y="1286.10806" x="1497.5136" stroke="#2D2D2D" fill="#0203ff"/>
  <rect id="92b166d07e094529b1058334d81e77e3-ao-14" height="45.94595" width="375.67568" y="1350.97293" x="1392.10819" stroke="#2D2D2D" fill="#0203ff"/>
  <rect id="92b166d07e094529b1058334d81e77e3-ao-15" height="62.16216" width="248.64865" y="1396.91887" x="1146.16224" stroke="#2D2D2D" fill="#0203ff"/>
  <rect id="92b166d07e094529b1058334d81e77e3-ao-16" height="51.35135" width="291.8919" y="1415.83779" x="829.94601" stroke="#2D2D2D" fill="#0203ff"/>
  <rect id="92b166d07e094529b1058334d81e77e3-ao-17" height="75.67568" width="262.16217" y="1432.05401" x="375.89195" stroke="#2D2D2D" fill="#0203ff"/>
  <rect id="92b166d07e094529b1058334d81e77e3-ao-18" height="56.75676" width="243.24325" y="1345.56752" x="178.59465" stroke="#2D2D2D" fill="#0203ff"/>
  <rect id="92b166d07e094529b1058334d81e77e3-ao-19" height="67.56757" width="291.8919" y="1240.16211" x="132.6487" stroke="#2D2D2D" fill="#0203ff"/>
  <rect id="92b166d07e094529b1058334d81e77e3-ao-20" height="124.32433" width="302.70271" y="1086.10806" x="94.81086" stroke="#2D2D2D" fill="#0203ff"/>
  <rect id="92b166d07e094529b1058334d81e77e3-ao-21" height="67.56757" width="248.64865" y="905.02697" x="156.97302" stroke="#2D2D2D" fill="#0203ff"/>
  <rect id="92b166d07e094529b1058334d81e77e3-ao-22" height="51.35135" width="391.8919" y="815.83778" x="13.72978" stroke="#2D2D2D" fill="#0203ff"/>
  <rect id="92b166d07e094529b1058334d81e77e3-ao-23" height="70.27027" width="289.1892" y="702.32426" x="124.54059" stroke="#2D2D2D" fill="#0203ff"/>
  <rect id="92b166d07e094529b1058334d81e77e3-ao-24" height="86.48649" width="302.70271" y="410.43236" x="129.946" stroke="#2D2D2D" fill="#0203ff"/>
  <rect id="92b166d07e094529b1058334d81e77e3-ao-25" height="94.5946" width="267.56757" y="299.62155" x="140.75681" stroke="#2D2D2D" fill="#0203ff"/>
 </g>
</svg>