<svg xmlns="http://www.w3.org/2000/svg" width="1160" height="1112">
 <!-- Created with Image Occlusion Enhanced -->
 <g>
  <title>Labels</title>
 </g>
 <g>
  <title>Masks</title>
  <rect id="9efffdab43994b6286f45b137da083d8-ao-1" height="54" width="210" y="16" x="326" stroke="#2D2D2D" fill="#0203ff"/>
  <rect id="9efffdab43994b6286f45b137da083d8-ao-2" height="66" width="230" y="44" x="872" stroke="#2D2D2D" fill="#0203ff"/>
  <rect id="9efffdab43994b6286f45b137da083d8-ao-3" height="44" width="172" y="234" x="962" stroke="#2D2D2D" fill="#0203ff"/>
  <rect id="9efffdab43994b6286f45b137da083d8-ao-4" height="60" width="232" y="434" x="928" stroke="#2D2D2D" fill="#0203ff"/>
  <rect id="9efffdab43994b6286f45b137da083d8-ao-5" height="72" width="216" y="546" x="954" stroke="#2D2D2D" fill="#0203ff"/>
  <rect id="9efffdab43994b6286f45b137da083d8-ao-6" height="76" width="192" y="656" x="974" stroke="#2D2D2D" fill="#0203ff"/>
  <rect id="9efffdab43994b6286f45b137da083d8-ao-7" height="76" width="170" y="754" x="992" stroke="#2D2D2D" fill="#0203ff"/>
  <rect id="9efffdab43994b6286f45b137da083d8-ao-8" height="86" width="262" y="884" x="916" stroke="#2D2D2D" fill="#0203ff"/>
  <rect id="9efffdab43994b6286f45b137da083d8-ao-9" height="68" width="164" y="982" x="824" stroke="#2D2D2D" fill="#0203ff"/>
  <rect id="9efffdab43994b6286f45b137da083d8-ao-10" height="32" width="208" y="1076" x="500" stroke="#2D2D2D" fill="#0203ff"/>
  <rect id="9efffdab43994b6286f45b137da083d8-ao-11" height="46" width="280" y="954" x="98" stroke="#2D2D2D" fill="#0203ff"/>
  <rect id="9efffdab43994b6286f45b137da083d8-ao-12" height="44" width="232" y="846" x="52" stroke="#2D2D2D" fill="#0203ff"/>
  <rect id="9efffdab43994b6286f45b137da083d8-ao-13" height="56" width="252" y="744" x="32" stroke="#2D2D2D" fill="#0203ff"/>
  <rect id="9efffdab43994b6286f45b137da083d8-ao-14" height="40" width="286" y="618" x="18" stroke="#2D2D2D" fill="#0203ff"/>
  <rect id="9efffdab43994b6286f45b137da083d8-ao-15" height="48" width="272" y="498" x="30" stroke="#2D2D2D" fill="#0203ff"/>
  <rect id="9efffdab43994b6286f45b137da083d8-ao-16" height="94" width="242" y="178" x="36" stroke="#2D2D2D" fill="#0203ff"/>
 </g>
</svg>