<svg xmlns="http://www.w3.org/2000/svg" width="2130" height="1360.0000000000002">
 <!-- Created with Image Occlusion Enhanced -->
 <g>
  <title>Labels</title>
 </g>
 <g>
  <title>Masks</title>
  <rect id="b759d565b78c43b2800bab876f206b27-ao-1" height="68.29269" width="541.46344" y="8.29274" x="621.21954" stroke="#2D2D2D" fill="#0203ff"/>
  <rect id="b759d565b78c43b2800bab876f206b27-ao-2" height="43.90244" width="185.36586" y="93.6586" x="984.63419" stroke="#2D2D2D" fill="#0203ff"/>
  <rect id="b759d565b78c43b2800bab876f206b27-ao-3" height="53.65854" width="248.7805" y="152.19519" x="1094.39029" stroke="#2D2D2D" fill="#0203ff"/>
  <rect id="b759d565b78c43b2800bab876f206b27-ao-4" height="65.85366" width="173.17074" y="157.07324" x="1406.58543" stroke="#2D2D2D" fill="#0203ff"/>
  <rect id="b759d565b78c43b2800bab876f206b27-ao-5" height="56.09756" width="317.07318" y="293.65861" x="1596.82934" stroke="#2D2D2D" fill="#0203ff"/>
  <rect id="b759d565b78c43b2800bab876f206b27-ao-6" height="46.34147" width="229.2683" y="452.1952" x="1713.90251" stroke="#2D2D2D" fill="#0203ff"/>
  <rect id="b759d565b78c43b2800bab876f206b27-ao-7" height="56.09756" width="241.46343" y="554.63423" x="1755.36593" stroke="#2D2D2D" fill="#0203ff"/>
  <rect id="b759d565b78c43b2800bab876f206b27-ao-8" height="48.78049" width="241.46343" y="659.51228" x="1779.75617" stroke="#2D2D2D" fill="#0203ff"/>
  <rect id="b759d565b78c43b2800bab876f206b27-ao-9" height="60.97561" width="307.31709" y="774.14643" x="1789.51227" stroke="#2D2D2D" fill="#0203ff"/>
  <rect id="b759d565b78c43b2800bab876f206b27-ao-10" height="51.21951" width="241.46343" y="888.78059" x="1777.31715" stroke="#2D2D2D" fill="#0203ff"/>
  <rect id="b759d565b78c43b2800bab876f206b27-ao-11" height="39.02439" width="290.24392" y="964.39035" x="1789.51227" stroke="#2D2D2D" fill="#0203ff"/>
  <rect id="b759d565b78c43b2800bab876f206b27-ao-12" height="48.78049" width="173.17074" y="1040.00011" x="1760.24398" stroke="#2D2D2D" fill="#0203ff"/>
  <rect id="b759d565b78c43b2800bab876f206b27-ao-13" height="46.34147" width="253.65855" y="1103.41474" x="1760.24398" stroke="#2D2D2D" fill="#0203ff"/>
  <rect id="b759d565b78c43b2800bab876f206b27-ao-14" height="60.97561" width="314.63416" y="1161.95133" x="1701.70739" stroke="#2D2D2D" fill="#0203ff"/>
  <rect id="b759d565b78c43b2800bab876f206b27-ao-15" height="56.09756" width="321.95123" y="1249.75621" x="1323.65859" stroke="#2D2D2D" fill="#0203ff"/>
  <rect id="b759d565b78c43b2800bab876f206b27-ao-16" height="53.65854" width="275.60977" y="1269.26841" x="1011.46346" stroke="#2D2D2D" fill="#0203ff"/>
  <rect id="b759d565b78c43b2800bab876f206b27-ao-17" height="48.78049" width="239.0244" y="1271.70743" x="687.0732" stroke="#2D2D2D" fill="#0203ff"/>
  <rect id="b759d565b78c43b2800bab876f206b27-ao-18" height="51.21951" width="329.26831" y="1208.2928" x="516.34148" stroke="#2D2D2D" fill="#0203ff"/>
  <rect id="b759d565b78c43b2800bab876f206b27-ao-19" height="46.34147" width="324.39026" y="1125.36596" x="345.60977" stroke="#2D2D2D" fill="#0203ff"/>
  <rect id="b759d565b78c43b2800bab876f206b27-ao-20" height="46.34147" width="234.14635" y="1059.5123" x="311.46343" stroke="#2D2D2D" fill="#0203ff"/>
  <rect id="b759d565b78c43b2800bab876f206b27-ao-21" height="36.58537" width="221.95123" y="993.65864" x="184.63415" stroke="#2D2D2D" fill="#0203ff"/>
  <rect id="b759d565b78c43b2800bab876f206b27-ao-22" height="51.21951" width="321.95123" y="886.34156" x="26.09756" stroke="#2D2D2D" fill="#0203ff"/>
  <rect id="b759d565b78c43b2800bab876f206b27-ao-23" height="65.85366" width="287.80489" y="761.95131" x="67.56098" stroke="#2D2D2D" fill="#0203ff"/>
  <rect id="b759d565b78c43b2800bab876f206b27-ao-24" height="48.78049" width="253.65855" y="508.29276" x="84.63415" stroke="#2D2D2D" fill="#ff0200" class="qshape"/>
  <rect id="b759d565b78c43b2800bab876f206b27-ao-25" height="60.97561" width="251.21952" y="379.02447" x="106.58537" stroke="#2D2D2D" fill="#0203ff"/>
  <rect id="b759d565b78c43b2800bab876f206b27-ao-26" height="46.34147" width="304.87806" y="305.85373" x="101.70732" stroke="#2D2D2D" fill="#0203ff"/>
  <rect id="b759d565b78c43b2800bab876f206b27-ao-27" height="43.90244" width="317.07318" y="218.04885" x="162.68293" stroke="#2D2D2D" fill="#0203ff"/>
  <rect id="b759d565b78c43b2800bab876f206b27-ao-28" height="65.85366" width="190.24391" y="291.21958" x="765.12198" stroke="#2D2D2D" fill="#0203ff"/>
 </g>
</svg>