<svg xmlns="http://www.w3.org/2000/svg" width="2076" height="1364">
 <!-- Created with Image Occlusion Enhanced -->
 <g>
  <title>Labels</title>
 </g>
 <g>
  <title>Masks</title>
  <rect id="d0f5a254436f4477ad36b6d1ad746fba-ao-1" height="75.60976" width="341.46343" y="28.68294" x="880.09765" stroke="#2D2D2D" fill="#0203ff"/>
  <rect id="d0f5a254436f4477ad36b6d1ad746fba-ao-2" height="65.85366" width="246.34147" y="340.87807" x="1824.00012" stroke="#2D2D2D" fill="#0203ff"/>
  
  <rect id="d0f5a254436f4477ad36b6d1ad746fba-ao-4" height="148.78049" width="221.95123" y="614.04881" x="1738.63427" stroke="#2D2D2D" fill="#0203ff"/>
  <rect id="d0f5a254436f4477ad36b6d1ad746fba-ao-5" height="56.09756" width="212.19513" y="684.78052" x="1365.46352" stroke="#2D2D2D" fill="#0203ff"/>
  <rect id="d0f5a254436f4477ad36b6d1ad746fba-ao-6" height="73.17073" width="202.43903" y="901.8537" x="1024.0001" stroke="#2D2D2D" fill="#0203ff"/>
  <rect id="d0f5a254436f4477ad36b6d1ad746fba-ao-7" height="56.09756" width="253.65854" y="1089.65859" x="889.85375" stroke="#2D2D2D" fill="#0203ff"/>
  <rect id="d0f5a254436f4477ad36b6d1ad746fba-ao-8" height="75.60976" width="209.7561" y="1201.85371" x="960.58546" stroke="#2D2D2D" fill="#0203ff"/>
  <rect id="d0f5a254436f4477ad36b6d1ad746fba-ao-9" height="219.5122" width="63.41464" y="1121.3659" x="726.43911" stroke="#2D2D2D" fill="#0203ff"/>
  <rect id="d0f5a254436f4477ad36b6d1ad746fba-ao-10" height="185.36586" width="78.04878" y="1140.8781" x="584.97569" stroke="#2D2D2D" fill="#0203ff"/>
  <rect id="d0f5a254436f4477ad36b6d1ad746fba-ao-11" height="70.73171" width="202.43903" y="1114.04883" x="272.78056" stroke="#2D2D2D" fill="#0203ff"/>
  <rect id="d0f5a254436f4477ad36b6d1ad746fba-ao-12" height="63.41464" width="95.12195" y="1033.56102" x="492.29276" stroke="#2D2D2D" fill="#0203ff"/>
  <rect id="d0f5a254436f4477ad36b6d1ad746fba-ao-13" height="90.24391" width="187.80488" y="648.19516" x="158.14641" stroke="#2D2D2D" fill="#0203ff"/>
  <rect id="d0f5a254436f4477ad36b6d1ad746fba-ao-14" height="73.17073" width="175.60976" y="470.14637" x="128.87812" stroke="#2D2D2D" fill="#0203ff"/>
  <rect id="d0f5a254436f4477ad36b6d1ad746fba-ao-15" height="58.53659" width="163.41464" y="353.0732" x="250.82934" stroke="#2D2D2D" fill="#0203ff"/>
  <rect id="d0f5a254436f4477ad36b6d1ad746fba-ao-16" height="82.92683" width="185.36586" y="196.97563" x="445.9513" stroke="#2D2D2D" fill="#0203ff"/>
  <rect id="d0f5a254436f4477ad36b6d1ad746fba-ao-17" height="51.21951" width="202.43903" y="694.53662" x="587.41472" stroke="#2D2D2D" fill="#0203ff"/>
  <rect id="d0f5a254436f4477ad36b6d1ad746fba-ao-18" height="53.65854" width="151.21952" y="540.87808" x="706.92692" stroke="#2D2D2D" fill="#0203ff"/>
  <rect id="d0f5a254436f4477ad36b6d1ad746fba-ao-19" height="68.29269" width="236.58537" y="365.26832" x="858.14643" stroke="#2D2D2D" fill="#0203ff"/>
  <rect id="d0f5a254436f4477ad36b6d1ad746fba-ao-20" height="60.97561" width="87.80488" y="567.70735" x="980.09766" stroke="#2D2D2D" fill="#0203ff"/>
  <rect id="d0f5a254436f4477ad36b6d1ad746fba-ao-21" height="78.04878" width="182.92684" y="465.26832" x="1131.31717" stroke="#2D2D2D" fill="#0203ff"/>
 </g>
</svg>