<svg xmlns="http://www.w3.org/2000/svg" width="1160" height="1466">
 <!-- Created with Image Occlusion Enhanced -->
 <g>
  <title>Labels</title>
 </g>
 <g>
  <title>Masks</title>
  <rect id="e11504ae3e5a489aaee146768ec586e7-ao-1" height="52.63158" width="307.89475" y="2.42096" x="634.73689" stroke="#2D2D2D" fill="#0203ff"/>
  <rect id="e11504ae3e5a489aaee146768ec586e7-ao-2" height="57.89474" width="184.21053" y="333.99992" x="832.10532" stroke="#2D2D2D" fill="#0203ff"/>
  <rect id="e11504ae3e5a489aaee146768ec586e7-ao-3" height="68.42105" width="328.94738" y="636.63151" x="805.78953" stroke="#2D2D2D" fill="#ff0200" class="qshape"/>
  <rect id="e11504ae3e5a489aaee146768ec586e7-ao-4" height="36.84211" width="273.68422" y="773.47362" x="800.52637" stroke="#2D2D2D" fill="#0203ff"/>
  <rect id="e11504ae3e5a489aaee146768ec586e7-ao-5" height="42.10526" width="318.42106" y="828.73678" x="811.05269" stroke="#2D2D2D" fill="#0203ff"/>
  <rect id="e11504ae3e5a489aaee146768ec586e7-ao-6" height="36.84211" width="276.3158" y="889.26309" x="824.21058" stroke="#2D2D2D" fill="#0203ff"/>
  <rect id="e11504ae3e5a489aaee146768ec586e7-ao-7" height="42.10526" width="257.89474" y="931.36836" x="816.31584" stroke="#2D2D2D" fill="#0203ff"/>
  <rect id="e11504ae3e5a489aaee146768ec586e7-ao-8" height="34.21053" width="173.68422" y="981.36836" x="805.78953" stroke="#2D2D2D" fill="#0203ff"/>
  <rect id="e11504ae3e5a489aaee146768ec586e7-ao-9" height="47.36842" width="121.05263" y="1094.52626" x="824.21058" stroke="#2D2D2D" fill="#0203ff"/>
  <rect id="e11504ae3e5a489aaee146768ec586e7-ao-10" height="57.89474" width="100" y="1197.15784" x="803.15795" stroke="#2D2D2D" fill="#0203ff"/>
  <rect id="e11504ae3e5a489aaee146768ec586e7-ao-11" height="44.73684" width="228.94737" y="1315.5789" x="750.52637" stroke="#2D2D2D" fill="#0203ff"/>
  <rect id="e11504ae3e5a489aaee146768ec586e7-ao-12" height="42.10526" width="273.68422" y="1410.31574" x="624.21058" stroke="#2D2D2D" fill="#0203ff"/>
  <rect id="e11504ae3e5a489aaee146768ec586e7-ao-13" height="47.36842" width="276.3158" y="1323.47363" x="111.05267" stroke="#2D2D2D" fill="#0203ff"/>
  <rect id="e11504ae3e5a489aaee146768ec586e7-ao-14" height="39.47369" width="142.10527" y="1136.63152" x="284.73688" stroke="#2D2D2D" fill="#0203ff"/>
  <rect id="e11504ae3e5a489aaee146768ec586e7-ao-15" height="55.26316" width="171.05264" y="1031.36836" x="255.78951" stroke="#2D2D2D" fill="#0203ff"/>
  <rect id="e11504ae3e5a489aaee146768ec586e7-ao-16" height="44.73684" width="252.63159" y="968.21047" x="140.00004" stroke="#2D2D2D" fill="#0203ff"/>
  <rect id="e11504ae3e5a489aaee146768ec586e7-ao-17" height="31.57895" width="344.73685" y="923.47362" x="21.57898" stroke="#2D2D2D" fill="#0203ff"/>
  <rect id="e11504ae3e5a489aaee146768ec586e7-ao-18" height="50" width="300.00001" y="847.15783" x="5.78951" stroke="#2D2D2D" fill="#0203ff"/>
  <rect id="e11504ae3e5a489aaee146768ec586e7-ao-19" height="39.47369" width="205.26316" y="662.9473" x="90.00003" stroke="#2D2D2D" fill="#0203ff"/>
  <rect id="e11504ae3e5a489aaee146768ec586e7-ao-20" height="73.68421" width="165.78948" y="410.31571" x="129.47372" stroke="#2D2D2D" fill="#0203ff"/>
  <rect id="e11504ae3e5a489aaee146768ec586e7-ao-21" height="39.47369" width="178.94737" y="281.36834" x="158.42109" stroke="#2D2D2D" fill="#0203ff"/>
  <rect id="e11504ae3e5a489aaee146768ec586e7-ao-22" height="34.21053" width="142.10527" y="226.10518" x="195.2632" stroke="#2D2D2D" fill="#0203ff"/>
  <rect id="e11504ae3e5a489aaee146768ec586e7-ao-23" height="26.31579" width="147.36843" y="189.26308" x="190.00004" stroke="#2D2D2D" fill="#0203ff"/>
 </g>
</svg>