<svg xmlns="http://www.w3.org/2000/svg" width="1288" height="1048">
 <!-- Created with Image Occlusion Enhanced -->
 <g>
  <title>Labels</title>
 </g>
 <g>
  <title>Masks</title>
  <rect id="e2b6410a761841c1b0951346b5ea0e24-ao-1" height="30.18868" width="116.98113" y="165.20754" x="938.41505" stroke="#2D2D2D" fill="#0203ff"/>
  <rect id="e2b6410a761841c1b0951346b5ea0e24-ao-2" height="28.30189" width="235.84906" y="285.96226" x="985.58486" stroke="#2D2D2D" fill="#0203ff"/>
  <rect id="e2b6410a761841c1b0951346b5ea0e24-ao-3" height="24.5283" width="107.54717" y="387.84905" x="985.58486" stroke="#2D2D2D" fill="#0203ff"/>
  <rect id="e2b6410a761841c1b0951346b5ea0e24-ao-4" height="35.84906" width="296.22641" y="574.6415" x="25.20751" stroke="#2D2D2D" fill="#0203ff"/>
  <rect id="e2b6410a761841c1b0951346b5ea0e24-ao-5" height="26.41509" width="92.45283" y="636.90565" x="247.84902" stroke="#2D2D2D" fill="#0203ff"/>
  <rect id="e2b6410a761841c1b0951346b5ea0e24-ao-6" height="30.18868" width="167.92453" y="680.30188" x="193.13204" stroke="#2D2D2D" fill="#0203ff"/>
  <rect id="e2b6410a761841c1b0951346b5ea0e24-ao-7" height="33.96226" width="116.98113" y="948.22641" x="874.26411" stroke="#2D2D2D" fill="#0203ff"/>
  <rect id="e2b6410a761841c1b0951346b5ea0e24-ao-8" height="32.07547" width="250.9434" y="80.30188" x="189.35845" stroke="#2D2D2D" fill="#0203ff"/>
  <rect id="e2b6410a761841c1b0951346b5ea0e24-ao-9" height="26.41509" width="150.9434" y="133.13207" x="206.33958" stroke="#2D2D2D" fill="#0203ff"/>
  <rect id="e2b6410a761841c1b0951346b5ea0e24-ao-10" height="28.30189" width="149.0566" y="174.6415" x="181.81128" stroke="#2D2D2D" fill="#0203ff"/>
  <rect id="e2b6410a761841c1b0951346b5ea0e24-ao-11" height="33.96226" width="184.90566" y="242.56603" x="115.77355" stroke="#2D2D2D" fill="#0203ff"/>
  <rect id="e2b6410a761841c1b0951346b5ea0e24-ao-12" height="39.62264" width="239.62264" y="321.81131" x="55.39619" stroke="#2D2D2D" fill="#0203ff"/>
  <rect id="e2b6410a761841c1b0951346b5ea0e24-ao-13" height="43.39623" width="94.33962" y="425.5849" x="227.0943" stroke="#2D2D2D" fill="#0203ff"/>
  <rect id="e2b6410a761841c1b0951346b5ea0e24-ao-14" height="26.41509" width="252.83019" y="489.73584" x="59.16977" stroke="#2D2D2D" fill="#0203ff"/>
  <rect id="e2b6410a761841c1b0951346b5ea0e24-ao-15" height="26.41509" width="233.96226" y="536.90565" x="85.58487" stroke="#2D2D2D" fill="#0203ff"/>
  <rect id="e2b6410a761841c1b0951346b5ea0e24-ao-16" height="20.75472" width="175.4717" y="740.67924" x="204.45279" stroke="#2D2D2D" fill="#0203ff"/>
  <rect id="e2b6410a761841c1b0951346b5ea0e24-ao-17" height="30.18868" width="90.56604" y="993.50942" x="661.05656" stroke="#2D2D2D" fill="#0203ff"/>
  <rect id="e2b6410a761841c1b0951346b5ea0e24-ao-18" height="30.18868" width="188.67924" y="725.5849" x="951.6226" stroke="#2D2D2D" fill="#0203ff"/>
  <rect id="e2b6410a761841c1b0951346b5ea0e24-ao-19" height="33.96226" width="156.60377" y="585.96226" x="981.81128" stroke="#2D2D2D" fill="#0203ff"/>
  <rect id="e2b6410a761841c1b0951346b5ea0e24-ao-20" height="28.30189" width="186.79245" y="548.22641" x="983.69807" stroke="#2D2D2D" fill="#0203ff"/>
  <rect id="e2b6410a761841c1b0951346b5ea0e24-ao-21" height="26.41509" width="143.39623" y="499.1698" x="985.58486" stroke="#2D2D2D" fill="#0203ff"/>
  <rect id="e2b6410a761841c1b0951346b5ea0e24-ao-22" height="32.07547" width="241.50943" y="457.66037" x="989.35845" stroke="#2D2D2D" fill="#0203ff"/>
  <rect id="e2b6410a761841c1b0951346b5ea0e24-ao-23" height="24.5283" width="184.90566" y="416.15094" x="985.58486" stroke="#2D2D2D" fill="#ff0200" class="qshape"/>
  <rect id="e2b6410a761841c1b0951346b5ea0e24-ao-24" height="20.75472" width="64.15094" y="359.54716" x="985.58486" stroke="#2D2D2D" fill="#0203ff"/>
  <rect id="e2b6410a761841c1b0951346b5ea0e24-ao-25" height="28.30189" width="162.26415" y="325.5849" x="985.58486" stroke="#2D2D2D" fill="#0203ff"/>
  <rect id="e2b6410a761841c1b0951346b5ea0e24-ao-26" height="20.75472" width="79.24528" y="212.37735" x="966.71694" stroke="#2D2D2D" fill="#0203ff"/>
  <rect id="e2b6410a761841c1b0951346b5ea0e24-ao-27" height="35.84906" width="64.15094" y="87.84905" x="870.49052" stroke="#2D2D2D" fill="#0203ff"/>
 </g>
</svg>