<svg xmlns="http://www.w3.org/2000/svg" width="1054" height="1332">
 <!-- Created with Image Occlusion Enhanced -->
 <g>
  <title>Labels</title>
 </g>
 <g>
  <title>Masks</title>
  <rect id="eac5859124284895963cfef6d3da54c5-ao-1" height="40.47619" width="154.76191" y="10.85712" x="541.23812" stroke="#2D2D2D" fill="#0203ff"/>
  <rect id="eac5859124284895963cfef6d3da54c5-ao-2" height="30.95238" width="169.04762" y="77.52379" x="610.28574" stroke="#2D2D2D" fill="#0203ff"/>
  <rect id="eac5859124284895963cfef6d3da54c5-ao-3" height="50" width="211.90477" y="163.23808" x="669.80955" stroke="#2D2D2D" fill="#0203ff"/>
  <rect id="eac5859124284895963cfef6d3da54c5-ao-4" height="47.61905" width="185.71429" y="275.14284" x="798.38098" stroke="#2D2D2D" fill="#0203ff"/>
  <rect id="eac5859124284895963cfef6d3da54c5-ao-5" height="42.85714" width="207.14286" y="341.80951" x="807.90479" stroke="#2D2D2D" fill="#0203ff"/>
  <rect id="eac5859124284895963cfef6d3da54c5-ao-6" height="38.09524" width="147.61905" y="410.85713" x="807.90479" stroke="#2D2D2D" fill="#0203ff"/>
  <rect id="eac5859124284895963cfef6d3da54c5-ao-7" height="45.2381" width="209.52381" y="372.76189" x="19.80954" stroke="#2D2D2D" fill="#0203ff"/>
  <rect id="eac5859124284895963cfef6d3da54c5-ao-8" height="59.52381" width="223.80953" y="472.76189" x="46.00002" stroke="#2D2D2D" fill="#0203ff"/>
  <rect id="eac5859124284895963cfef6d3da54c5-ao-9" height="38.09524" width="200" y="594.19047" x="107.90478" stroke="#2D2D2D" fill="#0203ff"/>
  <rect id="eac5859124284895963cfef6d3da54c5-ao-10" height="35.71429" width="238.09524" y="751.33333" x="79.33335" stroke="#2D2D2D" fill="#0203ff"/>
  <rect id="eac5859124284895963cfef6d3da54c5-ao-11" height="30.95238" width="302.38096" y="822.7619" x="24.57145" stroke="#2D2D2D" fill="#0203ff"/>
  <rect id="eac5859124284895963cfef6d3da54c5-ao-12" height="45.2381" width="147.61905" y="918" x="167.42859" stroke="#2D2D2D" fill="#0203ff"/>
  <rect id="eac5859124284895963cfef6d3da54c5-ao-13" height="38.09524" width="116.66667" y="972.7619" x="224.57145" stroke="#2D2D2D" fill="#0203ff"/>
  <rect id="eac5859124284895963cfef6d3da54c5-ao-14" height="45.2381" width="109.52381" y="1056.09524" x="317.42859" stroke="#2D2D2D" fill="#0203ff"/>
  <rect id="eac5859124284895963cfef6d3da54c5-ao-15" height="52.38095" width="130.95238" y="1253.71429" x="705.52384" stroke="#2D2D2D" fill="#0203ff"/>
  <rect id="eac5859124284895963cfef6d3da54c5-ao-16" height="38.09524" width="138.09524" y="1191.80952" x="700.76193" stroke="#2D2D2D" fill="#0203ff"/>
  <rect id="eac5859124284895963cfef6d3da54c5-ao-17" height="45.2381" width="159.52381" y="1113.23809" x="715.04765" stroke="#2D2D2D" fill="#0203ff"/>
  <rect id="eac5859124284895963cfef6d3da54c5-ao-18" height="45.2381" width="166.66667" y="853.71428" x="736.47622" stroke="#2D2D2D" fill="#ff0200" class="qshape"/>
  <rect id="eac5859124284895963cfef6d3da54c5-ao-19" height="45.2381" width="164.28572" y="796.57142" x="793.61908" stroke="#2D2D2D" fill="#0203ff"/>
  <rect id="eac5859124284895963cfef6d3da54c5-ao-20" height="50" width="247.61905" y="701.33333" x="798.38098" stroke="#2D2D2D" fill="#0203ff"/>
 </g>
</svg>