<svg xmlns="http://www.w3.org/2000/svg" width="1930.0000000000002" height="988.0000000000001">
 <!-- Created with Image Occlusion Enhanced -->
 <g>
  <title>Labels</title>
 </g>
 <g>
  <title>Masks</title>
  <rect id="f58932ea33894adb859429a312a7e979-ao-1" height="50" width="466.07141" y="4.85709" x="973.5713" stroke="#2D2D2D" fill="#0203ff"/>
  <rect id="f58932ea33894adb859429a312a7e979-ao-2" height="51.78571" width="357.14284" y="56.6428" x="523.57132" stroke="#2D2D2D" fill="#0203ff"/>
  <rect id="f58932ea33894adb859429a312a7e979-ao-3" height="57.14285" width="346.42856" y="176.28565" x="291.42847" stroke="#2D2D2D" fill="#0203ff"/>
  <rect id="f58932ea33894adb859429a312a7e979-ao-4" height="92.85714" width="248.21427" y="358.4285" x="3.92848" stroke="#2D2D2D" fill="#0203ff"/>
  <rect id="f58932ea33894adb859429a312a7e979-ao-5" height="42.85714" width="403.57141" y="295.9285" x="284.28561" stroke="#2D2D2D" fill="#0203ff"/>
  <rect id="f58932ea33894adb859429a312a7e979-ao-6" height="66.07143" width="344.64284" y="381.64278" x="273.57133" stroke="#2D2D2D" fill="#0203ff"/>
  <rect id="f58932ea33894adb859429a312a7e979-ao-7" height="101.78571" width="282.14284" y="549.49992" x="311.07133" stroke="#2D2D2D" fill="#0203ff"/>
  <rect id="f58932ea33894adb859429a312a7e979-ao-8" height="51.78571" width="269.64284" y="711.99991" x="311.07133" stroke="#2D2D2D" fill="#0203ff"/>
  <rect id="f58932ea33894adb859429a312a7e979-ao-9" height="48.21428" width="171.42856" y="779.85705" x="478.92846" stroke="#2D2D2D" fill="#0203ff"/>
  <rect id="f58932ea33894adb859429a312a7e979-ao-10" height="62.5" width="339.2857" y="808.42848" x="777.14273" stroke="#2D2D2D" fill="#0203ff"/>
  <rect id="f58932ea33894adb859429a312a7e979-ao-11" height="62.5" width="224.99999" y="611.99992" x="1478.92842" stroke="#2D2D2D" fill="#0203ff"/>
  <rect id="f58932ea33894adb859429a312a7e979-ao-12" height="73.21428" width="301.7857" y="911.9999" x="1528.92842" stroke="#2D2D2D" fill="#0203ff"/>
  <rect id="f58932ea33894adb859429a312a7e979-ao-13" height="66.07143" width="230.35713" y="201.28565" x="1296.78557" stroke="#2D2D2D" fill="#0203ff"/>
  <rect id="f58932ea33894adb859429a312a7e979-ao-14" height="51.78571" width="323.21427" y="204.85708" x="850.35702" stroke="#2D2D2D" fill="#0203ff"/>
  <rect id="f58932ea33894adb859429a312a7e979-ao-15" height="39.28571" width="262.49999" y="410.21421" x="934.28558" stroke="#2D2D2D" fill="#ff0200" class="qshape"/>
  <rect id="f58932ea33894adb859429a312a7e979-ao-16" height="85.71428" width="242.85713" y="526.28563" x="1098.57129" stroke="#2D2D2D" fill="#0203ff"/>
  <rect id="f58932ea33894adb859429a312a7e979-ao-17" height="87.5" width="241.07142" y="661.99991" x="1091.42843" stroke="#2D2D2D" fill="#0203ff"/>
 </g>
</svg>